P3
44 22
255
255 255 255 255 255 255 255 255 255 255 255 255 255 255 255 255 255 255 255 255 255 255 255 255 
249 242 242 236 209 209 230 188 188 229 182 182 229 182 182 230 188 187 235 207 207 247 238 238 
255 255 255 255 255 255 255 255 255 255 255 255 255 255 255 255 255 255 255 255 255 255 255 255 
255 255 255 255 255 255 255 255 255 255 255 255 255 255 255 255 255 255 255 255 255 255 255 255 
255 255 255 255 255 255 255 255 255 255 255 255 255 255 255 255 255 255 255 255 255 255 255 255 
255 255 255 255 255 255 255 255 255 255 255 255 
255 255 255 255 255 255 255 255 255 255 255 255 255 255 255 255 255 255 246 234 234 215 137 136 
203 34 30 206 30 24 206 29 24 206 28 24 207 29 24 206 28 24 206 28 24 203 30 25 
213 126 125 244 229 229 255 255 255 255 255 255 255 255 255 255 255 255 255 255 255 255 255 255 
255 255 255 255 255 255 255 255 255 255 255 255 255 255 255 255 255 255 255 255 255 255 255 255 
255 255 255 255 255 255 255 255 255 255 255 255 255 255 255 255 255 255 255 255 255 255 255 255 
255 255 255 255 255 255 255 255 255 255 255 255 
255 255 255 255 255 255 255 255 255 255 255 255 255 255 255 247 237 238 202 67 64 206 28 24 
205 29 24 202 37 32 207 68 65 207 96 95 208 91 89 204 52 49 203 28 23 206 28 24 
206 28 24 202 51 47 234 207 207 255 255 255 255 255 255 255 255 255 255 255 255 255 255 255 
255 255 255 255 255 255 255 255 255 255 255 255 255 255 255 255 255 255 255 255 255 255 255 255 
255 255 255 255 255 255 255 255 255 255 255 255 255 255 255 255 255 255 255 255 255 255 255 255 
255 255 255 255 255 255 255 255 255 255 255 255 
255 255 255 255 255 255 255 255 255 255 255 255 255 255 255 227 184 184 205 29 24 212 124 123 
241 221 221 253 250 250 255 255 255 255 255 255 255 255 255 255 254 254 249 239 239 230 194 194 
206 82 80 206 28 24 202 36 32 234 207 207 255 255 255 255 255 255 255 255 255 255 255 255 
255 255 255 255 255 255 255 255 255 255 255 255 255 255 255 255 255 255 255 255 255 255 255 255 
255 255 255 255 255 255 255 255 255 255 255 255 255 255 255 255 255 255 255 255 255 255 255 255 
255 255 255 255 255 255 255 255 255 255 255 255 
255 255 255 255 255 255 255 255 255 255 255 255 255 255 255 243 230 230 234 204 203 250 245 245 
255 255 255 255 255 255 255 255 255 255 255 255 255 255 255 255 255 255 255 255 255 255 255 255 
250 244 244 209 118 117 206 29 24 202 47 43 242 223 223 255 255 255 255 255 255 255 255 255 
255 255 255 255 255 255 255 255 255 255 255 255 255 255 255 255 255 255 255 255 255 255 255 255 
255 255 255 255 255 255 255 255 255 255 255 255 255 255 255 255 255 255 255 255 255 255 255 255 
255 255 255 255 255 255 255 255 255 255 255 255 
255 255 255 255 255 255 255 255 255 255 255 255 255 255 255 255 255 255 255 255 255 255 255 255 
255 255 255 255 255 255 255 255 255 255 255 255 255 255 255 255 255 255 255 255 255 255 255 255 
255 255 255 250 245 245 206 98 97 206 28 24 202 74 72 247 237 238 255 255 255 255 255 255 
255 255 255 255 255 255 255 255 255 255 255 255 255 255 255 255 255 255 255 255 255 255 255 255 
255 255 255 255 255 255 255 255 255 255 255 255 255 255 255 255 255 255 255 255 255 255 255 255 
255 255 255 255 255 255 255 255 255 255 255 255 
255 255 255 255 255 255 255 255 255 255 255 255 255 255 255 255 255 255 255 255 255 255 255 255 
255 255 255 255 255 255 255 255 255 255 255 255 255 255 255 255 255 255 255 255 255 255 255 255 
255 255 255 255 255 255 246 234 234 201 41 37 206 28 24 206 105 104 252 247 247 255 255 255 
255 255 255 255 255 255 255 255 255 255 255 255 255 255 255 255 255 255 255 255 255 255 255 255 
255 255 255 255 255 255 255 255 255 255 255 255 255 255 255 255 255 255 255 255 255 255 255 255 
255 255 255 255 255 255 255 255 255 255 255 255 
255 255 255 255 255 255 255 255 255 255 255 255 255 255 255 255 255 255 255 255 255 255 255 255 
255 255 255 255 255 255 255 255 255 255 255 255 255 255 255 255 255 255 255 255 255 255 255 255 
255 255 255 254 251 252 215 146 146 204 28 24 206 28 24 206 29 24 213 137 136 255 253 253 
255 255 255 255 255 255 255 255 255 255 255 255 255 255 255 255 255 255 255 255 255 255 255 255 
255 255 255 255 255 255 255 255 255 255 255 255 255 255 255 255 255 255 255 255 255 255 255 255 
255 255 255 255 255 255 255 255 255 255 255 255 
255 255 255 255 255 255 255 255 255 255 255 255 255 255 255 255 255 255 255 255 255 255 255 255 
255 255 255 255 255 255 255 255 255 255 255 255 255 255 255 255 255 255 255 255 255 255 255 255 
252 248 249 212 133 132 205 28 24 206 28 24 206 29 24 206 29 24 204 29 24 221 169 168 
255 255 255 255 255 255 255 255 255 255 255 255 255 255 255 255 255 255 255 255 255 255 255 255 
255 255 255 255 255 255 255 255 255 255 255 255 255 255 255 255 255 255 255 255 255 255 255 255 
255 255 255 255 255 255 255 255 255 255 255 255 
255 255 255 255 255 255 255 255 255 255 255 255 255 255 255 255 255 255 255 255 255 255 255 255 
255 255 255 255 255 255 255 255 255 255 255 255 255 255 255 255 255 255 255 255 255 250 245 245 
209 118 117 205 28 24 206 29 24 206 28 24 206 28 24 206 28 24 206 28 24 202 29 25 
231 198 198 255 255 255 255 255 255 255 255 255 255 255 255 255 255 255 255 255 255 255 255 255 
255 255 255 255 255 255 255 255 255 255 255 255 255 255 255 255 255 255 255 255 255 255 255 255 
255 255 255 255 255 255 255 255 255 255 255 255 
255 255 255 255 255 255 255 255 255 255 255 255 255 255 255 255 255 255 255 255 255 255 255 255 
255 255 255 255 255 255 255 255 255 255 255 255 255 255 255 255 255 255 249 240 240 207 104 103 
206 29 24 206 28 24 206 29 24 206 28 24 206 28 24 206 28 24 205 32 27 206 29 24 
202 44 40 240 219 219 255 255 255 255 255 255 255 255 255 255 255 255 255 255 255 255 255 255 
255 255 255 255 255 255 255 255 255 255 255 255 255 255 255 255 255 255 255 255 255 255 255 255 
255 255 255 255 255 255 255 255 255 255 255 255 
255 255 255 255 255 255 255 255 255 255 255 255 255 255 255 255 255 255 255 255 255 255 255 255 
255 255 255 255 255 255 255 255 255 255 255 255 255 255 255 246 236 236 206 90 89 206 28 24 
206 28 24 206 28 24 206 28 24 206 28 24 206 28 24 206 105 103 243 228 229 204 92 91 
206 28 24 202 71 68 246 235 235 255 255 255 255 255 255 255 255 255 255 255 255 255 255 255 
255 255 255 255 255 255 255 255 255 255 255 255 255 255 255 255 255 255 255 255 255 255 255 255 
255 255 255 255 255 255 255 255 255 255 255 255 
255 255 255 255 255 255 255 255 255 255 255 255 255 255 255 255 255 255 255 255 255 255 255 255 
255 255 255 255 255 255 255 255 255 255 255 255 244 229 229 203 77 75 206 28 24 206 28 24 
206 28 24 206 29 24 206 28 24 205 30 24 210 120 118 250 245 245 255 255 255 245 233 233 
202 64 61 206 28 24 206 101 100 251 246 247 255 255 255 255 255 255 255 255 255 255 255 255 
255 255 255 255 255 255 255 255 255 255 255 255 255 255 255 255 255 255 255 255 255 255 255 255 
255 255 255 255 255 255 255 255 255 255 255 255 
255 255 255 255 255 255 255 255 255 255 255 255 255 255 255 255 255 255 255 255 255 255 255 255 
255 255 255 255 255 255 255 255 255 241 222 221 203 64 62 206 28 24 206 28 24 206 28 24 
206 28 24 206 29 24 205 29 24 213 135 134 252 249 249 255 255 255 255 255 255 255 255 255 
239 216 215 202 38 34 206 30 24 212 132 130 255 253 253 255 255 255 255 255 255 255 255 255 
255 255 255 255 255 255 255 255 255 255 255 255 255 255 255 255 255 255 255 255 255 255 255 255 
255 255 255 255 255 255 255 255 255 255 255 255 
255 255 255 255 255 255 255 255 255 255 255 255 255 255 255 255 255 255 255 255 255 255 255 255 
255 255 255 255 255 255 237 212 212 202 53 49 206 28 24 206 28 24 206 28 24 206 28 24 
206 28 24 204 29 24 217 152 151 254 252 252 255 255 255 255 255 255 255 255 255 255 255 255 
255 255 255 229 192 192 202 29 25 204 29 24 220 164 164 255 255 255 255 255 255 255 255 255 
255 255 255 255 255 255 255 255 255 255 255 255 255 255 255 255 255 255 255 255 255 255 255 255 
255 255 255 255 255 255 255 255 255 255 255 255 
255 255 255 255 255 255 255 255 255 255 255 255 255 255 255 255 255 255 255 255 255 255 255 255 
255 255 255 233 203 203 203 41 36 206 29 24 205 28 24 206 28 24 206 28 24 206 28 24 
204 29 25 221 167 167 255 254 254 255 255 255 255 255 255 255 255 255 255 255 255 255 255 255 
255 255 255 255 255 255 219 162 162 205 29 24 202 30 25 230 194 194 255 255 255 255 255 255 
255 255 255 255 255 255 255 255 255 255 255 255 255 255 255 255 255 255 255 255 255 255 255 255 
255 255 255 255 255 255 255 255 255 255 255 255 
255 255 255 255 255 255 255 255 255 255 255 255 255 255 255 255 255 255 255 255 255 255 255 255 
229 191 191 202 32 28 206 29 24 206 28 24 206 29 24 206 28 24 206 29 24 203 31 26 
227 182 182 255 255 255 255 255 255 255 255 255 255 255 255 255 255 255 255 255 255 255 255 255 
255 255 255 255 255 255 254 252 253 212 131 130 206 30 24 203 41 35 236 211 211 255 255 255 
255 255 255 255 255 255 255 255 255 255 255 255 255 255 255 255 255 255 255 255 255 252 250 250 
249 243 243 251 247 247 255 255 255 255 255 255 
255 255 255 255 255 255 255 255 255 255 255 255 255 255 255 255 255 255 255 255 255 224 177 177 
203 29 25 206 28 24 206 28 24 206 28 24 206 28 24 206 29 24 203 38 34 232 197 197 
255 255 255 255 255 255 255 255 255 255 255 255 255 255 255 255 255 255 255 255 255 255 255 255 
255 255 255 255 255 255 255 255 255 251 246 246 205 100 98 206 29 24 203 42 38 229 192 191 
255 254 254 255 255 255 255 255 255 255 255 255 255 255 255 255 255 255 254 252 252 214 141 140 
203 26 22 206 130 130 255 255 255 255 255 255 
255 255 255 255 255 255 255 255 255 255 255 255 255 255 255 255 254 254 220 163 163 204 29 24 
206 28 24 206 28 24 206 28 24 206 28 24 206 29 24 203 49 46 236 209 209 255 255 255 
255 255 255 255 255 255 255 255 255 255 255 255 255 255 255 255 255 255 255 255 255 255 255 255 
255 255 255 255 255 255 255 255 255 255 255 255 247 235 235 202 69 67 206 29 24 205 29 24 
209 96 94 224 166 165 232 190 190 233 203 203 233 195 194 225 170 170 209 95 93 205 29 24 
206 28 24 213 147 147 255 255 255 255 255 255 
255 255 255 255 255 255 255 255 255 255 255 255 254 252 252 216 149 148 205 28 24 206 29 24 
206 28 24 206 28 24 206 28 24 206 28 24 202 62 59 239 219 219 255 255 255 255 255 255 
255 255 255 255 255 255 255 255 255 255 255 255 255 255 255 255 255 255 255 255 255 255 255 255 
255 255 255 255 255 255 255 255 255 255 255 255 255 255 255 243 226 226 203 72 69 206 29 24 
206 28 24 206 28 24 206 28 24 206 28 24 206 28 24 206 28 24 206 28 24 206 29 24 
204 79 76 246 233 234 255 255 255 255 255 255 
255 255 255 255 255 255 255 255 255 252 250 250 209 137 136 202 33 29 203 33 29 203 33 28 
203 33 28 203 33 28 203 34 28 203 78 76 243 228 228 255 255 255 255 255 255 255 255 255 
255 255 255 255 255 255 255 255 255 255 255 255 255 255 255 255 255 255 255 255 255 255 255 255 
255 255 255 255 255 255 255 255 255 255 255 255 255 255 255 255 255 255 249 241 241 223 164 163 
205 75 73 203 29 24 205 28 24 206 28 24 206 28 24 203 30 25 208 90 88 224 174 173 
250 244 244 255 255 255 255 255 255 255 255 255 
255 255 255 255 255 255 255 255 255 255 255 255 255 255 255 255 255 255 255 255 255 255 255 255 
255 255 255 255 255 255 255 255 255 255 255 255 255 255 255 255 255 255 255 255 255 255 255 255 
255 255 255 255 255 255 255 255 255 255 255 255 255 255 255 255 255 255 255 255 255 255 255 255 
255 255 255 255 255 255 255 255 255 255 255 255 255 255 255 255 255 255 255 255 255 255 255 255 
255 255 255 248 241 241 243 228 228 242 227 226 243 228 228 249 244 244 255 255 255 255 255 255 
255 255 255 255 255 255 255 255 255 255 255 255 
